<svg width="50" height="50" xmlns="http://www.w3.org/2000/svg">

 <g>
  <title>background</title>
  <rect fill="none" id="canvas_background" height="402" width="582" y="-1" x="-1"/>
 </g>
 <g>
  <title>Layer 1</title>
  <path id="svg_1" fill="#F16529" d="m45,1l-40,0c-2.2,0 -4,1.8 -4,4l0,40c0,2.2 1.8,4 4,4l40,0c2.2,0 4,-1.8 4,-4l0,-40c0,-2.2 -1.8,-4 -4,-4z"/>
  <polygon id="svg_2" points="17.4,12.7 18.6,12.7 18.6,14 20,14 20,10 18.6,10 18.6,11.3 17.4,11.3 17.4,10 16,10 16,14    17.4,14  " fill="#FFFFFF"/>
  <polygon id="svg_3" points="22.2,14 23.5,14 23.5,11.3 24.7,11.3 24.7,10 21,10 21,11.3 22.2,11.3  " fill="#FFFFFF"/>
  <polygon id="svg_4" points="26.8,12 27.7,13.5 27.7,13.5 28.6,12 28.6,14 30,14 30,10 28.6,10 27.7,11.4 26.8,10 25.4,10    25.4,14 26.8,14  " fill="#FFFFFF"/>
  <polygon id="svg_5" points="34,12.7 32.1,12.7 32.1,10 30.7,10 30.7,14 34,14  " fill="#FFFFFF"/>
  <path id="svg_6" fill="#FFFFFF" d="m14,16l2,22l9,2l9,-2l2,-22l-22,0zm17.5,7l-6.5,0l-4,0l0.5,2l3.5,0l6,0l-1,9l-5,2l-5,-2l-0.8,-4l2.8,0l0.5,2l2.5,1l2.5,-1l0.5,-4l-3,0l-6,0l-1,-8l7,0l7,0l-0.5,3z"/>
 </g>
</svg>